<svg xmlns="http://www.w3.org/2000/svg" x="0px" y="0px"
     width="288" height="288"
     viewBox="0 0 252 252"
     style="fill:#000000;"><g fill="none" fill-rule="nonzero" stroke="none" stroke-width="1" stroke-linecap="butt" stroke-linejoin="miter" stroke-miterlimit="10" stroke-dasharray="" stroke-dashoffset="0" font-family="none" font-weight="none" font-size="none" text-anchor="none" style="mix-blend-mode: normal"><path d="M0,252v-252h252v252z" fill="none"></path><path d="M126,252c-69.58788,0 -126,-56.41212 -126,-126v0c0,-69.58788 56.41212,-126 126,-126v0c69.58788,0 126,56.41212 126,126v0c0,69.58788 -56.41212,126 -126,126z" fill="#ffffff"></path><g fill="#00a3a3"><path d="M101.7576,35.1792c-3.08811,0 -5.5944,2.50629 -5.5944,5.5944v22.3776c0,3.08811 2.50629,5.5944 5.5944,5.5944h48.4848c3.08811,0 5.5944,-2.50629 5.5944,-5.5944v-22.3776c0,-3.08811 -2.50629,-5.5944 -5.5944,-5.5944zM66.3264,42.6384c-6.16876,0 -11.1888,5.02004 -11.1888,11.1888v141.7248c0,6.16876 5.02004,11.1888 11.1888,11.1888h119.3472c4.31888,0 8.07109,-2.45443 9.93589,-6.04603c0.79813,-1.54032 1.25291,-3.29289 1.25291,-5.14277v-141.7248c0,-6.16876 -5.02004,-11.1888 -11.1888,-11.1888h-22.3776v18.648h14.9184v126.8064h-104.4288v-126.8064h14.9184v-18.648zM150.59205,94.8528c-2.29697,0.00047 -4.59178,0.87861 -6.34469,2.62966l-3.33624,3.32896l12.69667,12.69667c-0.01119,0.00746 3.32896,-3.33624 3.32896,-3.33624c3.50582,-3.50582 3.50938,-9.18729 0.00728,-12.68938c-1.75478,-1.75291 -4.05501,-2.63013 -6.35197,-2.62966zM135.6518,106.05617l-40.58126,40.66138l-2.55682,13.08274c-0.25361,1.2979 0.89097,2.44621 2.1926,2.1926l13.08274,-2.5641l40.57397,-40.66138z"></path></g></g></svg>
